<?xml version="1.0" encoding="UTF-8"?>
<svg version="1.1" xmlns="http://www.w3.org/2000/svg" viewBox="500 160 420 420">
<path d="M0 0 C8.25 0 16.5 0 25 0 C25.99 2.64 26.98 5.28 28 8 C34.52974219 23.32843988 43.85181314 34.93495792 59.59765625 41.5 C67.02736691 44.25000857 73.79657356 46.08327532 81.74609375 46.17578125 C97.70332924 46.48478491 111.75848301 46.93720929 125.53515625 55.92578125 C128.86917296 57.37879963 130.53784504 57.05714655 134 56 C137.10720658 54.10090593 137.10720658 54.10090593 140.0625 51.6875 C141.06410156 50.90761719 142.06570313 50.12773437 143.09765625 49.32421875 C144.05542969 48.55722656 145.01320313 47.79023438 146 47 C146.86625 46.34257812 147.7325 45.68515625 148.625 45.0078125 C160.159371 35.25671596 165.14811272 20.26795963 166.67578125 5.73046875 C167 3 167 3 168 1 C171.58213639 -0.19404546 174.53621258 -0.168824 178.3125 -0.1875 C180.25576172 -0.20876953 180.25576172 -0.20876953 182.23828125 -0.23046875 C185.8662588 -0.00819391 188.6332728 0.67940778 192 2 C193.98072965 24.88843146 180.92093525 46.04678182 167 63 C164.8828125 65.3828125 164.8828125 65.3828125 163 67 C162.01 67 161.02 67 160 67 C160 67.66 160 68.32 160 69 C158.38542921 70.43581474 156.70780925 71.80144783 155 73.125 C154.071875 73.84945312 153.14375 74.57390625 152.1875 75.3203125 C151.465625 75.87460937 150.74375 76.42890625 150 77 C151.60759944 81.56804212 153.98399069 85.43514786 156.5625 89.5 C157.00650146 90.2027002 157.45050293 90.90540039 157.90795898 91.62939453 C164.56041041 102.09118748 171.36739474 112.04367204 180 121 C180.47953125 121.5053125 180.9590625 122.010625 181.453125 122.53125 C189.08758185 130.55128548 197.1010206 137.43332309 206 144 C215.06836522 150.83338569 223.98533727 157.60357382 227 169 C227.40905788 171.93208403 227.4781512 174.79238536 227.4375 177.75 C227.42920166 178.53568359 227.42090332 179.32136719 227.41235352 180.13085938 C227.08265352 191.59174757 223.12910301 200.1360028 216 209 C215.37996094 209.78375 214.75992188 210.5675 214.12109375 211.375 C206.40988721 220.59729146 196.07557284 228.06644906 184 230 C171.22830135 230.96390179 161.50992218 228.23417285 150.66796875 221.5859375 C141.13468494 215.91900745 130.7189525 217.4259832 120.4375 219.9375 C108.71725058 222.78200404 97.09583586 223.10859711 85.07885742 222.9074707 C70.91116205 222.69872987 60.969323 227.15990013 50.5 236.9375 C41.37758098 246.53487441 34.53369099 258.04591383 29 270 C27.02 273.96 27.02 273.96 25 278 C17.08 278 9.16 278 1 278 C-0.12596116 272.3701942 -0.12596116 272.3701942 1.44140625 268.5234375 C1.77462891 267.69328125 2.10785156 266.863125 2.45117188 266.0078125 C3.0012793 264.70457031 3.0012793 264.70457031 3.5625 263.375 C3.93310547 262.4778125 4.30371094 261.580625 4.68554688 260.65625 C7.39729894 254.19300674 10.30451351 247.96676785 14 242 C14.60457031 241.01902344 15.20914063 240.03804687 15.83203125 239.02734375 C20.29536078 232.06384541 25.26685019 225.94967271 31 220 C31.89847656 219.0615625 32.79695312 218.123125 33.72265625 217.15625 C38.80059452 211.95410316 38.80059452 211.95410316 41 210 C41.66 210 42.32 210 43 210 C43 209.34 43 208.68 43 208 C43.66 208 44.32 208 45 208 C44.42624451 204.60160211 43.42519574 203.15073521 40.875 200.875 C36.52667867 196.70452413 33.28010711 192.03352843 30 187 C29.46117187 186.18273437 28.92234375 185.36546875 28.3671875 184.5234375 C21.9179706 174.31487808 18.59046217 164.08136607 19 152 C21.14457892 149.85542108 25.65679975 150.48778742 28.625 150.3125 C29.42035156 150.25255859 30.21570313 150.19261719 31.03515625 150.13085938 C36.13394915 149.8252667 40.30586577 149.85479873 45 152 C46.34765625 154.65234375 46.34765625 154.65234375 47.0625 157.9375 C48.87845916 164.98999656 51.4066355 172.41497277 56.68359375 177.6796875 C58 179 58 179 58 181 C58.639375 181.268125 59.27875 181.53625 59.9375 181.8125 C62 183 62 183 63 186 C65.33455486 187.09146222 65.33455486 187.09146222 68 188 C69.44066322 188.80687792 70.87804705 189.61963251 72.3125 190.4375 C86.81764513 197.69007256 102.4764953 196.67984188 117.8125 192.9375 C133.24986394 189.19702306 147.23879363 189.64163493 161.23803711 197.43359375 C169.95920064 202.60069233 169.95920064 202.60069233 179.796875 203.6875 C188.38623354 201.0071328 194.11431088 194.42472331 198.875 187.125 C200.65507503 182.18034714 201.07327626 177.45433027 198.9375 172.5703125 C196.31557039 169.09202685 193.16484575 166.92851795 189.625 164.4375 C182.77990187 159.48374889 176.57631945 154.13726062 170.4765625 148.30078125 C168.23088237 145.99830329 168.23088237 145.99830329 166 145 C166 144.34 166 143.68 166 143 C165.34 143 164.68 143 164 143 C162.58984375 141.6015625 162.58984375 141.6015625 160.9375 139.625 C159.00759425 137.33447531 157.08783449 135.09006031 154.99609375 132.9453125 C146.95036187 124.6180541 141.15978905 114.74600965 135 105 C125.20611452 89.5405228 115.26716009 77.8539107 97 73 C92.43231208 72.51006648 87.90311168 72.49718021 83.3125 72.5 C60.60078516 72.05139181 42.47278504 65.69975444 25 51 C24.35933594 50.46117187 23.71867188 49.92234375 23.05859375 49.3671875 C11.5876244 38.77450582 2.6541776 23.3942301 0 8 C0 5.36 0 2.72 0 0 Z " fill="#72B73E" transform="translate(643,260)"/>
<path d="M0 0 C1.04510742 -0.01772461 2.09021484 -0.03544922 3.16699219 -0.05371094 C13.9471508 -0.04350568 22.91108447 2.74424189 32.5 7.5 C33.26119141 7.86802734 34.02238281 8.23605469 34.80664062 8.61523438 C36.64598727 9.50598715 38.479873 10.40800297 40.3125 11.3125 C40.3125 11.9725 40.3125 12.6325 40.3125 13.3125 C40.993125 13.539375 41.67375 13.76625 42.375 14 C48.30552538 16.64980921 52.86223566 20.61499875 57.3125 25.3125 C57.910625 25.8075 58.50875 26.3025 59.125 26.8125 C60.3125 28.3125 60.3125 28.3125 60.875 30.75 C60.3125 33.3125 60.3125 33.3125 57.4375 35.625 C54.3125 37.3125 54.3125 37.3125 52.3125 37.3125 C52.3125 37.9725 52.3125 38.6325 52.3125 39.3125 C42.89658265 44.23329587 42.89658265 44.23329587 37.5625 44.5 C33.36845528 42.96756058 30.25231661 40.68122603 27.3125 37.3125 C27.3125 36.6525 27.3125 35.9925 27.3125 35.3125 C25.18599105 34.5882542 23.05670072 33.87523502 20.921875 33.17578125 C19.27914496 32.6323032 17.64247327 32.06978624 16.015625 31.48046875 C1.03714673 26.37873874 -15.06021198 27.76421834 -29.6875 33.3125 C-25.60102122 41.93951075 -17.1621871 46.90897883 -8.64453125 50.6484375 C4.9124757 55.39760018 16.63837866 54.55751469 29.49609375 48.72265625 C32.15206291 47.57817094 32.15206291 47.57817094 33.3125 46.3125 C35.5546875 45.8984375 35.5546875 45.8984375 38.3125 46.3125 C40.2798496 48.16025388 41.80732165 49.82873718 43.4375 51.9375 C44.08138672 52.72060547 44.08138672 52.72060547 44.73828125 53.51953125 C47.9359399 57.50430588 51.11855844 61.66196534 51.5 66.875 C48.20467034 73.63909773 38.04960147 76.51406371 31.296875 79.015625 C12.03831871 85.62230174 -8.77960338 82.51988004 -26.7578125 73.828125 C-31.57975947 71.08536617 -35.74778484 67.76919691 -39.82421875 64.01953125 C-41.55914115 62.43009501 -43.35225891 60.97067852 -45.1875 59.5 C-49.67766397 55.65274587 -53.15062919 51.02366784 -56.6875 46.3125 C-57.29851563 45.50554687 -57.90953125 44.69859375 -58.5390625 43.8671875 C-69.62286404 28.68189112 -69.62286404 28.68189112 -69.7265625 21.671875 C-68.17629137 18.15171048 -66.00577741 17.48109248 -62.5625 15.875 C-61.62676147 15.43450317 -61.62676147 15.43450317 -60.67211914 14.98510742 C-40.88922793 5.81790761 -21.90995793 0.22508028 0 0 Z " fill="#5AA843" transform="translate(616.6875,307.6875)"/>
<path d="M0 0 C8.25 0 16.5 0 25 0 C25.99 2.64 26.98 5.28 28 8 C34.52974219 23.32843988 43.85181314 34.93495792 59.59765625 41.5 C67.02736691 44.25000857 73.79657356 46.08327532 81.74609375 46.17578125 C97.70332924 46.48478491 111.75848301 46.93720929 125.53515625 55.92578125 C128.86917296 57.37879963 130.53784504 57.05714655 134 56 C137.10720658 54.10090593 137.10720658 54.10090593 140.0625 51.6875 C141.06410156 50.90761719 142.06570313 50.12773437 143.09765625 49.32421875 C144.05542969 48.55722656 145.01320313 47.79023438 146 47 C146.86625 46.34257812 147.7325 45.68515625 148.625 45.0078125 C160.159371 35.25671596 165.14811272 20.26795963 166.67578125 5.73046875 C167 3 167 3 168 1 C171.58213639 -0.19404546 174.53621258 -0.168824 178.3125 -0.1875 C180.25576172 -0.20876953 180.25576172 -0.20876953 182.23828125 -0.23046875 C185.8662588 -0.00819391 188.6332728 0.67940778 192 2 C193.98072965 24.88843146 180.92093525 46.04678182 167 63 C164.8828125 65.3828125 164.8828125 65.3828125 163 67 C162.01 67 161.02 67 160 67 C160 67.66 160 68.32 160 69 C158.38542921 70.43581474 156.70780925 71.80144783 155 73.125 C154.071875 73.84945312 153.14375 74.57390625 152.1875 75.3203125 C151.465625 75.87460937 150.74375 76.42890625 150 77 C151.60759944 81.56804212 153.98399069 85.43514786 156.5625 89.5 C157.00650146 90.2027002 157.45050293 90.90540039 157.90795898 91.62939453 C164.56041041 102.09118748 171.36739474 112.04367204 180 121 C180.47953125 121.5053125 180.9590625 122.010625 181.453125 122.53125 C189.08758185 130.55128548 197.1010206 137.43332309 206 144 C215.06836522 150.83338569 223.98533727 157.60357382 227 169 C227.40905788 171.93208403 227.4781512 174.79238536 227.4375 177.75 C227.42920166 178.53568359 227.42090332 179.32136719 227.41235352 180.13085938 C227.08265352 191.59174757 223.12910301 200.1360028 216 209 C215.37996094 209.78375 214.75992188 210.5675 214.12109375 211.375 C206.42365893 220.58082103 196.06832571 228.09733604 184 230 C177.0353181 230.41307768 170.64081792 230.21360597 164 228 C163.34 227.34 162.68 226.68 162 226 C163.66611905 225.957279 165.33382885 225.95936168 167 226 C167.33 226.33 167.66 226.66 168 227 C171.20038909 227.25288599 174.41581342 227.18523682 177.625 227.1875 C178.51574219 227.19974609 179.40648437 227.21199219 180.32421875 227.22460938 C185.61913376 227.23630654 189.99156991 226.73579838 195 225 C195 224.34 195 223.68 195 223 C195.66 223 196.32 223 197 223 C197 222.34 197 221.68 197 221 C197.66 220.608125 198.32 220.21625 199 219.8125 C202.46657596 217.71811036 205.18996345 215.1911433 208.1328125 212.42578125 C210 211 210 211 213 211 C213.33 209.35 213.66 207.7 214 206 C214.66 206 215.32 206 216 206 C216.12503906 205.42507813 216.25007812 204.85015625 216.37890625 204.2578125 C217.01308858 201.95242014 217.8629975 200.0077861 218.9375 197.875 C219.44603516 196.85019531 219.44603516 196.85019531 219.96484375 195.8046875 C221 194 221 194 223 192 C223.689236 188.37175765 223.8032162 184.68397573 224 181 C224.09861328 179.45892578 224.09861328 179.45892578 224.19921875 177.88671875 C224.52927536 168.92966525 222.44907361 163.24571278 216.484375 156.5078125 C212.03491807 151.98810098 207.45184531 148.23703315 202 145 C202 144.34 202 143.68 202 143 C200.63875 142.6596875 200.63875 142.6596875 199.25 142.3125 C195.43781534 140.77296389 194.5165341 139.17926776 192 136 C190.30579794 134.56192927 188.57399833 133.16730319 186.8125 131.8125 C181.24164918 127.34986917 176.60456671 122.43504969 172 117 C171.44957031 116.37480469 170.89914062 115.74960937 170.33203125 115.10546875 C167 111.26943277 167 111.26943277 167 109 C166.34 109 165.68 109 165 109 C161 102.25 161 102.25 161 100 C160.34 100 159.68 100 159 100 C158.01 96.535 158.01 96.535 157 93 C156.34 93 155.68 93 155 93 C154.18432826 91.56429734 153.37257907 90.12636566 152.5625 88.6875 C152.11003906 87.88699219 151.65757812 87.08648437 151.19140625 86.26171875 C150 84 150 84 149 81 C148.34 81 147.68 81 147 81 C147 78.69 147 76.38 147 74 C148.32 73.67 149.64 73.34 151 73 C151 72.34 151 71.68 151 71 C154 69 154 69 157 69 C157 68.34 157 67.68 157 67 C158.49609375 65.78125 158.49609375 65.78125 160.4375 64.5 C163.22531847 62.7134637 163.22531847 62.7134637 165 60 C165.66 60 166.32 60 167 60 C167.66 58.35 168.32 56.7 169 55 C169.66 55 170.32 55 171 55 C171.3403125 53.6696875 171.3403125 53.6696875 171.6875 52.3125 C173.19565668 48.5061998 175.09177435 46.83898218 178 44 C181.10759253 39.04515068 183.32181352 34.09660313 185.1875 28.5625 C185.44869629 27.78986816 185.70989258 27.01723633 185.97900391 26.22119141 C188.41771388 18.52239575 188.9781099 11.03366785 189 3 C186.02077407 2.97316013 183.04178705 2.95323963 180.0625 2.9375 C179.21236328 2.92912109 178.36222656 2.92074219 177.48632812 2.91210938 C176.67744141 2.90888672 175.86855469 2.90566406 175.03515625 2.90234375 C174.2862915 2.89710693 173.53742676 2.89187012 172.76586914 2.88647461 C170.97332261 2.80658248 170.97332261 2.80658248 170 4 C169.89066372 5.39403756 169.81380447 6.79063776 169.75 8.1875 C169.11437386 15.21974478 166.61511122 21.48954401 164 28 C163.70222656 28.76570313 163.40445313 29.53140625 163.09765625 30.3203125 C157.70115484 42.60543551 143.97400627 54.32356187 132 60 C126.87849503 60.7118961 123.33748843 59.0275939 118.9375 56.625 C111.32724807 52.59459747 105.84773398 50.68024499 97.25 50.375 C96.3940625 50.33632813 95.538125 50.29765625 94.65625 50.2578125 C89.74881167 50.04961815 84.85564877 49.96835915 79.9440918 50.01733398 C70.07175657 49.9293099 60.78502998 46.1803162 52 42 C52 41.34 52 40.68 52 40 C51.38125 39.690625 50.7625 39.38125 50.125 39.0625 C48.75 38.375 47.375 37.6875 46 37 C46 36.34 46 35.68 46 35 C45.2575 34.773125 44.515 34.54625 43.75 34.3125 C40.47880979 32.75125013 39.18463045 30.84001958 37 28 C36.01 27.67 35.02 27.34 34 27 C32.48638033 24.47337417 31.15923309 22.01402844 29.875 19.375 C29.51535156 18.67503906 29.15570312 17.97507812 28.78515625 17.25390625 C26.56987317 12.78185538 25.4308777 8.97467891 25 4 C24.34 4 23.68 4 23 4 C23 3.34 23 2.68 23 2 C22.00033203 2.01740234 22.00033203 2.01740234 20.98046875 2.03515625 C14.25769055 2.10097366 7.682561 1.72383639 1 1 C1.29648437 1.69996094 1.59296875 2.39992188 1.8984375 3.12109375 C3.02950035 6.07709842 3.8566935 8.99315435 4.625 12.0625 C4.88539063 13.08472656 5.14578125 14.10695313 5.4140625 15.16015625 C6 18 6 18 6 22 C6.66 22 7.32 22 8 22 C8.33 22.928125 8.66 23.85625 9 24.8125 C11.82773103 31.45563844 16.66896336 37.19629215 21.25390625 42.7109375 C23 45 23 45 23 47 C24.32 47.33 25.64 47.66 27 48 C27.061875 48.61875 27.12375 49.2375 27.1875 49.875 C27.455625 50.57625 27.72375 51.2775 28 52 C29.65438613 52.69658363 31.32254318 53.36096883 33 54 C34.8125 56.125 34.8125 56.125 36 58 C23.56458884 53.90761924 12.98166394 39.27030937 6.97509766 28.09277344 C2.31669345 18.60862668 0 10.58809099 0 0 Z " fill="#8CB654" transform="translate(643,260)"/>
<path d="M0 0 C5.63554225 1.17242925 8.72995084 4.36743035 12 9 C14.86531179 13.70729794 15.63899681 17.58495212 16 23 C15.67 23.66 15.34 24.32 15 25 C-11.29478866 24.09650608 -11.29478866 24.09650608 -17.1875 18.4375 C-19.95464352 14.71616905 -20.44791387 12.65830428 -20 8 C-15.00218634 -0.96159691 -9.51321604 -0.72383165 0 0 Z " fill="#7AB73D" transform="translate(751,366)"/>
<path d="M0 0 C3.96799773 0.59341227 6.82312459 1.8629904 10.3125 3.8125 C20.25720773 8.88882683 30.68441359 11.46957552 41.87890625 11.08984375 C57.06209866 10.65278064 72.31876013 12.29439416 84 23 C84 23.66 84 24.32 84 25 C84.59683594 25.09796875 85.19367188 25.1959375 85.80859375 25.296875 C88.44017724 26.14123334 89.33055103 27.12547593 91.0625 29.25 C91.54847656 29.83265625 92.03445313 30.4153125 92.53515625 31.015625 C94.19247292 33.26073665 95.5802376 35.59787674 97 38 C98.85112385 40.83019792 100.70814252 43.65619884 102.57421875 46.4765625 C104 49 104 49 104 52 C104.66 52 105.32 52 106 52 C107.37555373 54.06035321 108.64070799 56.10719566 109.875 58.25 C112.22459571 62.31488992 114.62911995 65.70470022 118 69 C118 69.66 118 70.32 118 71 C119.485 71.495 119.485 71.495 121 72 C125 76.45714286 125 76.45714286 125 79 C126.485 79.495 126.485 79.495 128 80 C128 80.66 128 81.32 128 82 C128.66 82 129.32 82 130 82 C132.625 84.375 132.625 84.375 135 87 C135 87.66 135 88.32 135 89 C135.99 89.33 136.98 89.66 138 90 C138 90.66 138 91.32 138 92 C138.99 92 139.98 92 141 92 C141 92.66 141 93.32 141 94 C141.99 94 142.98 94 144 94 C145.6875 95.375 145.6875 95.375 147 97 C147 97.66 147 98.32 147 99 C148.32 99.33 149.64 99.66 151 100 C151 100.66 151 101.32 151 102 C151.66 102 152.32 102 153 102 C153 102.66 153 103.32 153 104 C154.0209375 104.309375 154.0209375 104.309375 155.0625 104.625 C160.65207975 107.24139903 164.78143818 110.48258121 167 116.375 C168.55326103 122.1153125 168.20388263 126.59223474 165.5 132 C162.07515126 136.10981849 158.26198385 139.75825939 154 143 C153.34 143 152.68 143 152 143 C151.67 143.99 151.34 144.98 151 146 C146.0687586 149.28749426 140.7509866 148.76241651 135 148 C131.35567924 146.41237511 128.26785315 144.24286043 125 142 C112.96202658 135.40414838 100.40400506 134.53541959 87 135 C93.30555323 130.76819824 104.52010805 132.42677321 111.80859375 133.359375 C116.69665473 134.61315841 120.86053619 136.99708302 125.23803711 139.43359375 C133.95920064 144.60069233 133.95920064 144.60069233 143.796875 145.6875 C152.38623354 143.0071328 158.11431088 136.42472331 162.875 129.125 C164.65507503 124.18034714 165.07327626 119.45433027 162.9375 114.5703125 C160.31557039 111.09202685 157.16484575 108.92851795 153.625 106.4375 C146.77990187 101.48374889 140.57631945 96.13726062 134.4765625 90.30078125 C132.23088237 87.99830329 132.23088237 87.99830329 130 87 C130 86.34 130 85.68 130 85 C129.34 85 128.68 85 128 85 C126.58984375 83.6015625 126.58984375 83.6015625 124.9375 81.625 C123.00759425 79.33447531 121.08783449 77.09006031 118.99609375 74.9453125 C110.95036187 66.6180541 105.15978905 56.74600965 99 47 C89.20611452 31.5405228 79.26716009 19.8539107 61 15 C56.43231208 14.51006648 51.90311168 14.49718021 47.3125 14.5 C29.96202468 14.15728853 16.02646998 10.93465783 1 2 C0.67 1.34 0.34 0.68 0 0 Z " fill="#85B253" transform="translate(679,318)"/>
<path d="M0 0 C1.95492813 2.93239219 2.48778382 4.63843119 3.25 8 C4.98053667 14.63961008 7.75413498 21.75413498 12.6875 26.6875 C13.120625 27.120625 13.55375 27.55375 14 28 C14 28.66 14 29.32 14 30 C14.639375 30.268125 15.27875 30.53625 15.9375 30.8125 C18 32 18 32 19 35 C17 34 15 33 13 32 C13 31.34 13 30.68 13 30 C12.34 30 11.68 30 11 30 C-1 10.04854369 -1 10.04854369 -1 2 C-7.44140708 1.81824574 -7.44140708 1.81824574 -13.8125 2.5625 C-16.45172022 3.09034404 -18.39861766 2.57808496 -21 2 C-21.33 2.33 -21.66 2.66 -22 3 C-21.32195339 16.33491659 -16.79277356 26.9658261 -9.40234375 37.81640625 C-8.11045477 39.82801054 -7.02289545 41.84164166 -6 44 C-5.34 44 -4.68 44 -4 44 C-2.98648336 45.65848177 -1.98879205 47.32665961 -1 49 C-0.278125 49.721875 0.44375 50.44375 1.1875 51.1875 C1.785625 51.785625 2.38375 52.38375 3 53 C3 53.66 3 54.32 3 55 C3.99 55.495 3.99 55.495 5 56 C4.52167725 56.44802979 4.04335449 56.89605957 3.55053711 57.35766602 C1.34506567 59.42474659 -0.85872408 61.49361193 -3.0625 63.5625 C-3.81466797 64.26697266 -4.56683594 64.97144531 -5.34179688 65.69726562 C-14.48232501 73.87661258 -14.48232501 73.87661258 -22.125 83.375 C-22.85203125 84.51001953 -22.85203125 84.51001953 -23.59375 85.66796875 C-25.43145516 88.71549647 -27.15602669 91.81439536 -28.83984375 94.94921875 C-30 97 -30 97 -32.1875 100 C-34.22230403 103.36795151 -34.86751189 106.20507135 -35.5078125 110.046875 C-36 112 -36 112 -38 114 C-39.14431464 117.6348818 -40.08004894 121.30391343 -41 125 C-37.72761969 124.97721619 -34.45874097 124.89994236 -31.1875 124.8125 C-29.7943457 124.80379883 -29.7943457 124.80379883 -28.37304688 124.79492188 C-25.82167856 124.71202543 -23.48683716 124.5795183 -21 124 C-18.4114753 121.1370065 -18 119.8378775 -18 116 C-17.01 115.505 -17.01 115.505 -16 115 C-15.15825556 113.3038533 -14.32437814 111.6031903 -13.53759766 109.88085938 C-10.4338915 103.09839885 -6.98808123 97.1756 -2.125 91.5 C-1.64877197 90.94280273 -1.17254395 90.38560547 -0.68188477 89.81152344 C0.49233926 88.49181102 1.74035367 87.23844017 3 86 C3.66 86 4.32 86 5 86 C5.66 84.35 6.32 82.7 7 81 C7.99 81 8.98 81 10 81 C10 80.34 10 79.68 10 79 C14.92925623 74.78610069 19.51536373 72.27594197 26 72 C23.05801028 74.29050015 20.01129254 76.21403303 16.8125 78.125 C1.80575653 87.72534052 -7.64404117 103.10938271 -15 119 C-16.32 121.64 -17.64 124.28 -19 127 C-26.92 127 -34.84 127 -43 127 C-44.12596116 121.3701942 -44.12596116 121.3701942 -42.55859375 117.5234375 C-42.22537109 116.69328125 -41.89214844 115.863125 -41.54882812 115.0078125 C-41.18208984 114.13898438 -40.81535156 113.27015625 -40.4375 112.375 C-40.06689453 111.4778125 -39.69628906 110.580625 -39.31445312 109.65625 C-36.60270106 103.19300674 -33.69548649 96.96676785 -30 91 C-29.39542969 90.01902344 -28.79085937 89.03804688 -28.16796875 88.02734375 C-23.70463922 81.06384541 -18.73314981 74.94967271 -13 69 C-12.10152344 68.0615625 -11.20304688 67.123125 -10.27734375 66.15625 C-5.19940548 60.95410316 -5.19940548 60.95410316 -3 59 C-2.34 59 -1.68 59 -1 59 C-1 58.34 -1 57.68 -1 57 C-0.34 57 0.32 57 1 57 C0.42624451 53.60160211 -0.57480426 52.15073521 -3.125 49.875 C-7.47332133 45.70452413 -10.71989289 41.03352843 -14 36 C-14.53882813 35.18273437 -15.07765625 34.36546875 -15.6328125 33.5234375 C-22.0820294 23.31487808 -25.40953783 13.08136607 -25 1 C-21.00558734 -2.99441266 -5.15636248 -1.237527 0 0 Z " fill="#368D4E" transform="translate(687,411)"/>
<path d="M0 0 C8.25 0 16.5 0 25 0 C25.99 2.64 26.98 5.28 28 8 C34.52974219 23.32843988 43.85181314 34.93495792 59.59765625 41.5 C67.02736691 44.25000857 73.79657356 46.08327532 81.74609375 46.17578125 C98.92818571 46.50850363 113.06429828 47.68459352 128 57 C128 57.33 128 57.66 128 58 C122.5672593 58.7148343 119.10420609 56.79563741 114.46484375 54.2890625 C108.58252077 51.21272877 103.81873406 50.60820949 97.25 50.375 C96.3940625 50.33632813 95.538125 50.29765625 94.65625 50.2578125 C89.74881167 50.04961815 84.85564877 49.96835915 79.9440918 50.01733398 C70.07175657 49.9293099 60.78502998 46.1803162 52 42 C52 41.34 52 40.68 52 40 C51.38125 39.690625 50.7625 39.38125 50.125 39.0625 C48.75 38.375 47.375 37.6875 46 37 C46 36.34 46 35.68 46 35 C45.2575 34.773125 44.515 34.54625 43.75 34.3125 C40.47880979 32.75125013 39.18463045 30.84001958 37 28 C36.01 27.67 35.02 27.34 34 27 C32.48638033 24.47337417 31.15923309 22.01402844 29.875 19.375 C29.51535156 18.67503906 29.15570312 17.97507812 28.78515625 17.25390625 C26.56987317 12.78185538 25.4308777 8.97467891 25 4 C24.34 4 23.68 4 23 4 C23 3.34 23 2.68 23 2 C22.00033203 2.01740234 22.00033203 2.01740234 20.98046875 2.03515625 C14.25769055 2.10097366 7.682561 1.72383639 1 1 C1.29648437 1.69996094 1.59296875 2.39992188 1.8984375 3.12109375 C3.02950035 6.07709842 3.8566935 8.99315435 4.625 12.0625 C4.88539063 13.08472656 5.14578125 14.10695313 5.4140625 15.16015625 C6 18 6 18 6 22 C6.66 22 7.32 22 8 22 C8.33 22.928125 8.66 23.85625 9 24.8125 C11.82773103 31.45563844 16.66896336 37.19629215 21.25390625 42.7109375 C23 45 23 45 23 47 C24.32 47.33 25.64 47.66 27 48 C27.061875 48.61875 27.12375 49.2375 27.1875 49.875 C27.455625 50.57625 27.72375 51.2775 28 52 C29.65438613 52.69658363 31.32254318 53.36096883 33 54 C34.8125 56.125 34.8125 56.125 36 58 C23.56458884 53.90761924 12.98166394 39.27030937 6.97509766 28.09277344 C2.31669345 18.60862668 0 10.58809099 0 0 Z " fill="#85B058" transform="translate(643,260)"/>
<path d="M0 0 C1.94326172 -0.02126953 1.94326172 -0.02126953 3.92578125 -0.04296875 C7.5537588 0.17930609 10.3207728 0.86690778 13.6875 2.1875 C15.66822965 25.07593146 2.60843525 46.23428182 -11.3125 63.1875 C-13.4296875 65.5703125 -13.4296875 65.5703125 -15.3125 67.1875 C-16.3025 67.1875 -17.2925 67.1875 -18.3125 67.1875 C-18.3125 67.8475 -18.3125 68.5075 -18.3125 69.1875 C-19.93876404 70.56982443 -21.6050002 71.90687515 -23.3125 73.1875 C-24.6325 72.5275 -25.9525 71.8675 -27.3125 71.1875 C-24.3125 69.1875 -24.3125 69.1875 -21.3125 69.1875 C-21.3125 68.5275 -21.3125 67.8675 -21.3125 67.1875 C-19.81640625 65.96875 -19.81640625 65.96875 -17.875 64.6875 C-15.08718153 62.9009637 -15.08718153 62.9009637 -13.3125 60.1875 C-12.6525 60.1875 -11.9925 60.1875 -11.3125 60.1875 C-10.6525 58.5375 -9.9925 56.8875 -9.3125 55.1875 C-8.6525 55.1875 -7.9925 55.1875 -7.3125 55.1875 C-7.085625 54.300625 -6.85875 53.41375 -6.625 52.5 C-5.11684332 48.6936998 -3.22072565 47.02648218 -0.3125 44.1875 C2.79509253 39.23265068 5.00931352 34.28410313 6.875 28.75 C7.13619629 27.97736816 7.39739258 27.20473633 7.66650391 26.40869141 C10.10521388 18.70989575 10.6656099 11.22116785 10.6875 3.1875 C7.70827407 3.16066013 4.72928705 3.14073963 1.75 3.125 C0.89986328 3.11662109 0.04972656 3.10824219 -0.82617188 3.09960938 C-1.63505859 3.09638672 -2.44394531 3.09316406 -3.27734375 3.08984375 C-4.0262085 3.08460693 -4.77507324 3.07937012 -5.54663086 3.07397461 C-7.33917739 2.99408248 -7.33917739 2.99408248 -8.3125 4.1875 C-8.42183628 5.58153756 -8.49869553 6.97813776 -8.5625 8.375 C-9.19812614 15.40724478 -11.69738878 21.67704401 -14.3125 28.1875 C-14.61027344 28.95320313 -14.90804687 29.71890625 -15.21484375 30.5078125 C-20.61134516 42.79293551 -34.33849373 54.51106187 -46.3125 60.1875 C-49.5234375 60.50390625 -49.5234375 60.50390625 -52.3125 60.1875 C-52.9725 59.5275 -53.6325 58.8675 -54.3125 58.1875 C-53.43851563 58.12755859 -53.43851563 58.12755859 -52.546875 58.06640625 C-44.05801285 56.98527758 -38.76002243 52.53155678 -32.3125 47.1875 C-31.45140625 46.53136719 -30.5903125 45.87523437 -29.703125 45.19921875 C-18.14894266 35.47633655 -13.16349919 20.44700841 -11.63671875 5.91796875 C-11.3125 3.1875 -11.3125 3.1875 -10.3125 1.1875 C-6.73036361 -0.00654546 -3.77628742 0.018676 0 0 Z " fill="#9FCA51" transform="translate(821.3125,259.8125)"/>
<path d="M0 0 C1.95492813 2.93239219 2.48778382 4.63843119 3.25 8 C4.98053667 14.63961008 7.75413498 21.75413498 12.6875 26.6875 C13.120625 27.120625 13.55375 27.55375 14 28 C14 28.66 14 29.32 14 30 C14.639375 30.268125 15.27875 30.53625 15.9375 30.8125 C18 32 18 32 19 35 C17 34 15 33 13 32 C13 31.34 13 30.68 13 30 C12.34 30 11.68 30 11 30 C-1 10.04854369 -1 10.04854369 -1 2 C-7.44140708 1.81824574 -7.44140708 1.81824574 -13.8125 2.5625 C-16.45172022 3.09034404 -18.39861766 2.57808496 -21 2 C-21.33 2.33 -21.66 2.66 -22 3 C-21.32195339 16.33491659 -16.79277356 26.9658261 -9.40234375 37.81640625 C-8.11045477 39.82801054 -7.02289545 41.84164166 -6 44 C-5.34 44 -4.68 44 -4 44 C-2.98648336 45.65848177 -1.98879205 47.32665961 -1 49 C-0.278125 49.721875 0.44375 50.44375 1.1875 51.1875 C1.785625 51.785625 2.38375 52.38375 3 53 C3 53.66 3 54.32 3 55 C3.66 55.33 4.32 55.66 5 56 C2.21190822 58.64962219 -0.58106444 61.29404167 -3.375 63.9375 C-4.1690625 64.69224609 -4.963125 65.44699219 -5.78125 66.22460938 C-6.54179688 66.94326172 -7.30234375 67.66191406 -8.0859375 68.40234375 C-8.7876709 69.06741943 -9.4894043 69.73249512 -10.21240234 70.41772461 C-12 72 -12 72 -14 73 C-13.51061681 68.72538761 -11.04257174 66.67448934 -8.0625 63.75 C-7.16660156 62.85796875 -6.27070312 61.9659375 -5.34765625 61.046875 C-3 59 -3 59 -1 59 C-1 58.34 -1 57.68 -1 57 C-0.34 57 0.32 57 1 57 C0.42624451 53.60160211 -0.57480426 52.15073521 -3.125 49.875 C-7.47332133 45.70452413 -10.71989289 41.03352843 -14 36 C-14.53882813 35.18273437 -15.07765625 34.36546875 -15.6328125 33.5234375 C-22.0820294 23.31487808 -25.40953783 13.08136607 -25 1 C-21.00558734 -2.99441266 -5.15636248 -1.237527 0 0 Z " fill="#629A55" transform="translate(687,411)"/>
<path d="M0 0 C4.97258938 0.86497146 6.72366863 3.80146125 9.6875 7.625 C10.18572266 8.22957031 10.68394531 8.83414062 11.19726562 9.45703125 C14.49668366 13.65629057 15.70477666 16.65851731 16 22 C0.1240562 34.1328351 -19.01185031 37.77643362 -38.63134766 35.40576172 C-45.62475249 34.2077573 -55.91070965 32.08929035 -61 27 C-57.03065562 25.89740434 -55.57517676 26.16303072 -52 28 C-50.44834245 28.39899766 -48.88451519 28.75329371 -47.3125 29.0625 C-43.10408163 29.89591837 -43.10408163 29.89591837 -42 31 C-30.81683206 32.97350022 -20.05026259 32.40099043 -9.05859375 29.65625 C-6.25440408 29.05458478 -3.85351815 28.87246846 -1 29 C-1 28.34 -1 27.68 -1 27 C-0.154375 26.5875 0.69125 26.175 1.5625 25.75 C5.11713583 23.94036721 8.55033514 22.00080562 12 20 C10.61951891 15.97359682 8.69553115 13.26731048 6 10 C5.505 9.113125 5.01 8.22625 4.5 7.3125 C2.87544753 4.80798161 1.75031217 4.04322186 -1 3 C-0.67 2.01 -0.34 1.02 0 0 Z " fill="#648C50" transform="translate(652,354)"/>
<path d="M0 0 C-0.33 0.66 -0.66 1.32 -1 2 C-5.90911386 0.12856985 -10.4958508 -2.25448043 -15.16015625 -4.66015625 C-24.0273339 -8.84370774 -33.35196489 -7.32601317 -42.5625 -5.0625 C-60.02214095 -0.85392149 -78.15361281 -1.85792833 -96 -2 C-91.39522012 -4.30238994 -88.36283257 -5.2305247 -83.125 -5.5625 C-82.42391113 -5.60713379 -81.72282227 -5.65176758 -81.00048828 -5.69775391 C-76.13437564 -5.97311401 -71.30593625 -5.99503134 -66.43383789 -5.9152832 C-55.71541643 -5.74654553 -46.48620446 -6.97970681 -36.1875 -10.1875 C-22.53211994 -13.66828315 -11.52712857 -6.39383548 0 0 Z " fill="#6EA252" transform="translate(806,485)"/>
<path d="M0 0 C1.56802368 -0.02670776 1.56802368 -0.02670776 3.16772461 -0.05395508 C11.29099078 -0.04562221 19.41378411 0.71335607 26.3125 5.3125 C22.26973362 4.87934646 18.59116116 4.38871502 14.65625 3.3125 C9.89710524 2.09160829 5.20614075 1.86791072 0.3125 1.6875 C-0.55761719 1.64882813 -1.42773438 1.61015625 -2.32421875 1.5703125 C-4.44500486 1.47709113 -6.56622185 1.39375864 -8.6875 1.3125 C-8.6875 2.3025 -8.6875 3.2925 -8.6875 4.3125 C-9.87085938 4.42207031 -11.05421875 4.53164063 -12.2734375 4.64453125 C-20.70533588 5.47103045 -28.69699978 6.34653466 -36.6875 9.3125 C-37.63367188 9.64636719 -38.57984375 9.98023438 -39.5546875 10.32421875 C-43.17327238 11.6151993 -46.76872981 12.92167984 -50.3046875 14.42578125 C-53.20156358 15.50379907 -55.62185896 15.45508796 -58.6875 15.3125 C-59.0175 15.9725 -59.3475 16.6325 -59.6875 17.3125 C-60.3475 16.6525 -61.0075 15.9925 -61.6875 15.3125 C-41.11446056 6.30061424 -22.66770034 0.24734437 0 0 Z " fill="#618950" transform="translate(616.6875,307.6875)"/>
<path d="M0 0 C0.66 0.33 1.32 0.66 2 1 C2 1.66 2 2.32 2 3 C0 4.625 0 4.625 -2 6 C-0.90700018 14.83508185 3.50627383 22.01893642 10 28 C10.70125 29.0725 11.4025 30.145 12.125 31.25 C13.77064122 34.26003892 13.77064122 34.26003892 17 35 C18.4296875 36.7421875 18.4296875 36.7421875 19.875 38.875 C22.28369042 42.22570301 24.31423056 44.06012134 28 46 C29.37310707 47.29233607 30.71034824 48.62437146 32 50 C32.5775 50.53625 33.155 51.0725 33.75 51.625 C35 53 35 53 35 55 C30.3843068 53.70183629 27.49950209 51.00352532 24.0390625 47.84765625 C22.24008937 46.21755225 20.39329188 44.70472706 18.5 43.1875 C14.00983603 39.34024587 10.53687081 34.71116784 7 30 C6.38898437 29.19304687 5.77796875 28.38609375 5.1484375 27.5546875 C-6.27307933 11.9067063 -6.27307933 11.9067063 -5.80859375 5.26171875 C-5 3 -5 3 -2.5625 1.125 C-1.716875 0.75375 -0.87125 0.3825 0 0 Z " fill="#5D905D" transform="translate(553,324)"/>
<path d="M0 0 C5.63554225 1.17242925 8.72995084 4.36743035 12 9 C14.86531179 13.70729794 15.63899681 17.58495212 16 23 C15.67 23.66 15.34 24.32 15 25 C-11.29478866 24.09650608 -11.29478866 24.09650608 -17.1875 18.4375 C-19.95464352 14.71616905 -20.44791387 12.65830428 -20 8 C-15.00218634 -0.96159691 -9.51321604 -0.72383165 0 0 Z M-17 4.625 C-18.48714398 8.15696694 -17.99772861 11.34666292 -17 15 C-14.36476612 18.95285083 -11.56800259 20.46524703 -6.88964844 21.43945312 C-4.55399549 21.7746951 -2.22401118 22.02774446 0.125 22.25 C0.92292969 22.34023438 1.72085938 22.43046875 2.54296875 22.5234375 C6.33988516 22.91644053 9.29963099 23.092796 13 22 C13.5921504 16.22653357 11.87756085 11.89816784 9 7 C5.51597773 2.92114466 2.75348032 1.69537294 -2.4375 1.0625 C-7.98290323 0.80597795 -12.53251068 0.99516493 -17 4.625 Z " fill="#7EAC56" transform="translate(751,366)"/>
<path d="M0 0 C1.47722862 4.37220015 0.31955044 6.96198915 -1.4453125 11.08203125 C-9.21488833 25.66462709 -20.87172669 35.69655279 -36 42 C-44.14197497 44.16290633 -53.05722649 43.64759117 -61 41 C-61.66 40.34 -62.32 39.68 -63 39 C-61.33388095 38.957279 -59.66617115 38.95936168 -58 39 C-57.67 39.33 -57.34 39.66 -57 40 C-53.79961091 40.25288599 -50.58418658 40.18523682 -47.375 40.1875 C-46.03888672 40.20586914 -46.03888672 40.20586914 -44.67578125 40.22460938 C-39.38086624 40.23630654 -35.00843009 39.73579838 -30 38 C-30 37.34 -30 36.68 -30 36 C-29.34 36 -28.68 36 -28 36 C-28 35.34 -28 34.68 -28 34 C-27.34 33.608125 -26.68 33.21625 -26 32.8125 C-22.53342404 30.71811036 -19.81003655 28.1911433 -16.8671875 25.42578125 C-15 24 -15 24 -12 24 C-11.67 22.35 -11.34 20.7 -11 19 C-10.34 19 -9.68 19 -9 19 C-8.81050781 18.13375 -8.81050781 18.13375 -8.6171875 17.25 C-7.16737492 11.96460729 -4.34244244 7.29742599 -1 3 C-0.67 2.01 -0.34 1.02 0 0 Z " fill="#7FAE50" transform="translate(868,447)"/>
<path d="M0 0 C-1.01707031 0.49306641 -1.01707031 0.49306641 -2.0546875 0.99609375 C-23.27786339 11.84284154 -35.19557953 31.67135831 -44 53 C-44.33 53 -44.66 53 -45 53 C-44.8864371 51.35333797 -44.75882619 49.70763918 -44.625 48.0625 C-44.55539062 47.14597656 -44.48578125 46.22945312 -44.4140625 45.28515625 C-44.27742187 44.53105469 -44.14078125 43.77695312 -44 43 C-43.01 42.505 -43.01 42.505 -42 42 C-41.15825556 40.3038533 -40.32437814 38.6031903 -39.53759766 36.88085938 C-36.4338915 30.09839885 -32.98808123 24.1756 -28.125 18.5 C-27.64877197 17.94280273 -27.17254395 17.38560547 -26.68188477 16.81152344 C-25.50766074 15.49181102 -24.25964633 14.23844017 -23 13 C-22.34 13 -21.68 13 -21 13 C-20.34 11.35 -19.68 9.7 -19 8 C-18.01 8 -17.02 8 -16 8 C-16 7.34 -16 6.68 -16 6 C-14.13671875 4.52734375 -14.13671875 4.52734375 -11.6875 2.9375 C-10.88699219 2.41027344 -10.08648438 1.88304687 -9.26171875 1.33984375 C-5.75898362 -0.73517896 -3.83581666 -1.19042586 0 0 Z " fill="#449252" transform="translate(713,484)"/>
<path d="M0 0 C0.99 0.33 1.98 0.66 3 1 C6.38302641 1.78397589 9.77303849 2.53267958 13.1640625 3.28125 C16 4 16 4 17 5 C23.80332132 6.14062819 30.55180042 6.18340868 37.4375 6.1875 C39.05881836 6.20586914 39.05881836 6.20586914 40.71289062 6.22460938 C47.13480751 6.23629267 52.79043915 5.65196519 59 4 C52.70601312 10.29398688 39.56933357 9.90893656 31.01708984 10.01855469 C19.08271053 9.90877342 8.849687 6.53377196 -2 2 C-1.34 1.34 -0.68 0.68 0 0 Z " fill="#598951" transform="translate(593,380)"/>
<path d="M0 0 C3.28890181 1.24989789 6.26097507 2.69764298 9.3125 4.4375 C23.07170054 11.31710027 38.48657093 11.1743722 53 7 C55.4375 7.375 55.4375 7.375 57 8 C56.01 8 55.02 8 54 8 C54 8.66 54 9.32 54 10 C47.30637904 13.0273059 41.6698525 13.42970521 34.375 13.3125 C33.364375 13.31572266 32.35375 13.31894531 31.3125 13.32226562 C26.14252675 13.28494955 21.82782846 13.03696666 17 11 C16.154375 10.69320313 15.30875 10.38640625 14.4375 10.0703125 C9.52887106 8.16664551 5.13696826 6.28835939 1 3 C0.67 2.01 0.34 1.02 0 0 Z " fill="#689F54" transform="translate(706,446)"/>
<path d="M0 0 C3.70365843 2.46910562 3.71018862 3.64515497 4.6875 7.875 C4.93886719 8.92429687 5.19023438 9.97359375 5.44921875 11.0546875 C6 14 6 14 6 18 C6.66 18 7.32 18 8 18 C8.33 18.928125 8.66 19.85625 9 20.8125 C11.82773103 27.45563844 16.66896336 33.19629215 21.25390625 38.7109375 C23 41 23 41 23 43 C24.32 43.33 25.64 43.66 27 44 C27.061875 44.61875 27.12375 45.2375 27.1875 45.875 C27.455625 46.57625 27.72375 47.2775 28 48 C29.65438613 48.69658363 31.32254318 49.36096883 33 50 C34.8125 52.125 34.8125 52.125 36 54 C23.56458884 49.90761924 12.98166394 35.27030937 6.97509766 24.09277344 C3.24205697 16.49259446 0 8.54516071 0 0 Z " fill="#7DAB55" transform="translate(643,264)"/>
<path d="M0 0 C-1 3 -1 3 -2.890625 4.1328125 C-3.66921875 4.46023438 -4.4478125 4.78765625 -5.25 5.125 C-6.01828125 5.45757812 -6.7865625 5.79015625 -7.578125 6.1328125 C-18.32161731 9.97967588 -30.4166487 8.69647197 -41 5 C-37.94222085 4.09410543 -35.32866942 3.92635004 -32.1484375 4.04296875 C-31.21386719 4.06423828 -30.27929688 4.08550781 -29.31640625 4.10742188 C-27.37853075 4.16017944 -25.4409402 4.22498947 -23.50390625 4.30273438 C-17.34158368 4.41653924 -12.84560856 3.5503681 -7.27587891 0.8684082 C-4.70913247 -0.11098646 -2.72434293 -0.15302257 0 0 Z " fill="#669656" transform="translate(649,357)"/>
<path d="M0 0 C4.23173639 -0.07497625 8.46310588 -0.12898541 12.6953125 -0.16479492 C14.1306025 -0.17974586 15.56584791 -0.20011424 17.00097656 -0.22631836 C28.12022675 -0.42404561 37.29326694 0.51534631 47.125 6.1875 C48.52105469 6.98220703 48.52105469 6.98220703 49.9453125 7.79296875 C50.62335937 8.19128906 51.30140625 8.58960938 52 9 C52 9.33 52 9.66 52 10 C46.5672593 10.7148343 43.10420609 8.79563741 38.46484375 6.2890625 C32.58252077 3.21272877 27.81873406 2.60820949 21.25 2.375 C20.3940625 2.33632813 19.538125 2.29765625 18.65625 2.2578125 C14.4208197 2.07812758 10.22268727 2.00824498 5.984375 2.1015625 C2 2 2 2 0 0 Z " fill="#8CBA50" transform="translate(719,308)"/>
<path d="M0 0 C0.66 0.66 1.32 1.32 2 2 C-1.23937256 1.51409412 -4.24429825 0.92309129 -7.375 -0.0625 C-15.97775191 -2.2836344 -26.04592693 -1.42425085 -34.76171875 -0.22265625 C-39.48797716 0.24749511 -44.25600418 0.07224359 -49 0 C-36.86027243 -8.09315172 -12.86671853 -5.14668741 0 0 Z " fill="#679159" transform="translate(638,337)"/>
<path d="M0 0 C4.59516623 2.15419259 9.062356 4.58084775 13.45336914 7.12475586 C18.29516852 9.84971761 22.13670693 10.89972711 27.69140625 11.26171875 C27.69140625 11.59171875 27.69140625 11.92171875 27.69140625 12.26171875 C21.88663967 13.57247249 18.81020048 13.77547094 13.69140625 10.57421875 C12.85222656 10.01734375 12.01304687 9.46046875 11.1484375 8.88671875 C-1.16055871 0.74595178 -14.99869015 -0.23425994 -29.30859375 0.26171875 C-22.3667878 -4.39708685 -7.62142915 -2.71720517 0 0 Z " fill="#7AAB58" transform="translate(795.30859375,452.73828125)"/>
<path d="M0 0 C19.30769778 -0.54021538 19.30769778 -0.54021538 27.78515625 2.28125 C30.20328462 3.14530916 30.20328462 3.14530916 33.6875 3.4375 C37.94052037 4.15971101 41.26139345 5.91220673 45 8 C45 8.33 45 8.66 45 9 C40.80483852 9.45353097 37.83691777 8.65523308 34 7.125 C24.97020361 3.65105378 15.60310145 2.82851605 6 3 C3.99279077 2.71325582 1.98821313 2.39764263 0 2 C0 1.34 0 0.68 0 0 Z " fill="#71AB53" transform="translate(608,309)"/>
<path d="M0 0 C0.66 0 1.32 0 2 0 C0.66578058 4.90933775 -1.53787018 8.45922816 -4.6875 12.375 C-5.13230713 12.93791748 -5.57711426 13.50083496 -6.03540039 14.08081055 C-7.34631591 15.72943264 -8.67077776 17.36612167 -10 19 C-10.69609375 19.86496094 -11.3921875 20.72992188 -12.109375 21.62109375 C-15.4922898 25.67625444 -15.4922898 25.67625444 -17 27 C-17.99 27 -18.98 27 -20 27 C-20 27.66 -20 28.32 -20 29 C-21.62626404 30.38232443 -23.2925002 31.71937515 -25 33 C-26.32 32.34 -27.64 31.68 -29 31 C-26 29 -26 29 -23 29 C-23 28.34 -23 27.68 -23 27 C-21.50390625 25.78125 -21.50390625 25.78125 -19.5625 24.5 C-16.77468153 22.7134637 -16.77468153 22.7134637 -15 20 C-14.34 20 -13.68 20 -13 20 C-12.34 18.35 -11.68 16.7 -11 15 C-10.34 15 -9.68 15 -9 15 C-8.773125 14.113125 -8.54625 13.22625 -8.3125 12.3125 C-6.81598255 8.53557501 -4.91731295 6.7714473 -2 4 C-0.70480005 1.83379456 -0.70480005 1.83379456 0 0 Z " fill="#97C44F" transform="translate(823,300)"/>
<path d="M0 0 C1.25683594 0.06574219 1.25683594 0.06574219 2.5390625 0.1328125 C8.05417405 0.44015618 13.51525829 0.97258113 19 1.625 C19 1.955 19 2.285 19 2.625 C4.3234406 3.60460349 -10.2937883 3.74207333 -25 3.625 C-16.70268849 -0.52365575 -9.20083164 -0.56620502 0 0 Z " fill="#639A55" transform="translate(735,479.375)"/>
<path d="M0 0 C6.91754658 2.30584886 12.04643851 6.77124065 17 12 C17.598125 12.495 18.19625 12.99 18.8125 13.5 C20.5284654 15.66753524 20.28197944 17.3211953 20 20 C19 21 19 21 15.9375 21.0625 C14.968125 21.041875 13.99875 21.02125 13 21 C13.33 20.34 13.66 19.68 14 19 C14.66 19 15.32 19 16 19 C14.40386893 15.27569416 12.71388467 12.53478056 9.8125 9.75 C8.884375 8.8425 7.95625 7.935 7 7 C7 6.34 7 5.68 7 5 C6.21625 4.9175 5.4325 4.835 4.625 4.75 C2 4 2 4 0.6875 1.9375 C0.460625 1.298125 0.23375 0.65875 0 0 Z " fill="#678E4D" transform="translate(657,321)"/>
<path d="M0 0 C0.33 0.99 0.66 1.98 1 3 C0.45730469 3.59167969 -0.08539062 4.18335938 -0.64453125 4.79296875 C-1.35996094 5.58316406 -2.07539062 6.37335938 -2.8125 7.1875 C-3.87404297 8.35345703 -3.87404297 8.35345703 -4.95703125 9.54296875 C-7.95912585 13.15351847 -10.0933525 17.13199434 -12.3125 21.25 C-14.94160152 26.01925427 -17.91507382 30.51572586 -21 35 C-21.33 34.34 -21.66 33.68 -22 33 C-16.69806425 20.95831541 -8.99171962 9.55370209 0 0 Z " fill="#459051" transform="translate(672,482)"/>
<path d="M0 0 C0.66 0.33 1.32 0.66 2 1 C2 1.66 2 2.32 2 3 C0 4.625 0 4.625 -2 6 C-1.48068259 10.88597228 -0.02134273 14.0949721 2.5625 18.25 C6 23.81086519 6 23.81086519 6 26 C1.90711744 24.63570581 0.87943912 21.95068443 -1.125 18.375 C-1.48464844 17.77042969 -1.84429688 17.16585938 -2.21484375 16.54296875 C-4.61835739 12.32106652 -5.58929718 8.84131507 -6 4 C-4.02 2.68 -2.04 1.36 0 0 Z " fill="#5E8E5D" transform="translate(553,324)"/>
<path d="M0 0 C4.0425457 0.60270681 7.0428624 1.93427316 10.625 3.875 C16.27645309 6.79187901 21.80935068 8.6107598 28 10 C28 10.66 28 11.32 28 12 C28.99 12.33 29.98 12.66 31 13 C20.27525695 12.02502336 9.97051756 7.89058376 1 2 C0.67 1.34 0.34 0.68 0 0 Z " fill="#7CA953" transform="translate(679,318)"/>
<path d="M0 0 C-1.01707031 0.49306641 -1.01707031 0.49306641 -2.0546875 0.99609375 C-8.47183844 4.27577339 -13.59530902 7.97641502 -18.80859375 12.94921875 C-20.78681224 14.80049274 -22.80112963 16.42222286 -25 18 C-24.6875 16.0625 -24.6875 16.0625 -24 14 C-23.01 13.67 -22.02 13.34 -21 13 C-19.78130071 10.49552484 -19.78130071 10.49552484 -19 8 C-18.01 8 -17.02 8 -16 8 C-16 7.34 -16 6.68 -16 6 C-14.13671875 4.52734375 -14.13671875 4.52734375 -11.6875 2.9375 C-10.88699219 2.41027344 -10.08648438 1.88304687 -9.26171875 1.33984375 C-5.75898362 -0.73517896 -3.83581666 -1.19042586 0 0 Z " fill="#539554" transform="translate(713,484)"/>
<path d="M0 0 C-10.3788642 4.68066425 -21.0468119 5.6510627 -32 2 C-32.66 1.34 -33.32 0.68 -34 0 C-32.33388095 -0.042721 -30.66617115 -0.04063832 -29 0 C-28.67 0.33 -28.34 0.66 -28 1 C-24.75768952 1.25185049 -21.5009323 1.1852298 -18.25 1.1875 C-16.88875 1.20586914 -16.88875 1.20586914 -15.5 1.22460938 C-10.3506855 1.23590173 -4.48517224 -1.49505741 0 0 Z " fill="#7AA957" transform="translate(839,486)"/>
<path d="M0 0 C-0.556875 0.17015625 -1.11375 0.3403125 -1.6875 0.515625 C-5.65159553 1.77449318 -9.30375515 3.08891393 -12.9375 5.125 C-16.89813926 7.23308219 -20.55421267 7.55024356 -24.99609375 7.7265625 C-25.65738281 7.81679688 -26.31867187 7.90703125 -27 8 C-27.33 8.66 -27.66 9.32 -28 10 C-28.66 9.34 -29.32 8.68 -30 8 C-24.27168749 5.52195736 -19.21170135 3.83619057 -13 3 C-10.97676387 2.04788888 -8.97300116 1.05226728 -7 0 C-3.87244086 -1.07230599 -3.27027227 -1.09009076 0 0 Z " fill="#5A9150" transform="translate(585,315)"/>
<path d="M0 0 C0.99 0.33 1.98 0.66 3 1 C1.85571683 4.43284952 1.45259103 4.6368219 -1.625 6.1875 C-5.64924999 8.09792915 -8.5951958 8.36706702 -13 8 C-13 7.34 -13 6.68 -13 6 C-12.14535156 5.65066406 -11.29070313 5.30132812 -10.41015625 4.94140625 C-9.30542969 4.48636719 -8.20070313 4.03132813 -7.0625 3.5625 C-5.96035156 3.11003906 -4.85820313 2.65757812 -3.72265625 2.19140625 C-1.13431084 1.25575392 -1.13431084 1.25575392 0 0 Z " fill="#6E965A" transform="translate(667,343)"/>
<path d="M0 0 C4.14581887 -0.02886751 8.29161216 -0.04675327 12.4375 -0.0625 C14.21350586 -0.07506836 14.21350586 -0.07506836 16.02539062 -0.08789062 C17.15009766 -0.09111328 18.27480469 -0.09433594 19.43359375 -0.09765625 C20.47572021 -0.10289307 21.51784668 -0.10812988 22.59155273 -0.11352539 C25 0 25 0 26 1 C26.04080783 2.99958364 26.04254356 5.00045254 26 7 C25.67 6.01 25.34 5.02 25 4 C24.34 4 23.68 4 23 4 C23 3.34 23 2.68 23 2 C22.00033203 2.01740234 22.00033203 2.01740234 20.98046875 2.03515625 C14.25769055 2.10097366 7.682561 1.72383639 1 1 C0.67 1.99 0.34 2.98 0 4 C0 2.68 0 1.36 0 0 Z " fill="#8CBA5A" transform="translate(643,260)"/>
<path d="M0 0 C0.66 0 1.32 0 2 0 C2 0.66 2 1.32 2 2 C1.34 2 0.68 2 0 2 C0 2.66 0 3.32 0 4 C-0.66 4 -1.32 4 -2 4 C-2 4.66 -2 5.32 -2 6 C-15.6332574 10.59225513 -15.6332574 10.59225513 -22 10 C-17.34714182 6.89809455 -12.58467324 5.66153496 -7 6 C-7 5.34 -7 4.68 -7 4 C-6.030625 3.525625 -5.06125 3.05125 -4.0625 2.5625 C-1.19522563 1.29806053 -1.19522563 1.29806053 0 0 Z " fill="#679D55" transform="translate(658,377)"/>
<path d="M0 0 C2.44379972 2.2692426 4.23937994 4.36995082 6.0625 7.1875 C7.75899467 10.25402613 7.75899467 10.25402613 11 11 C12.6875 14.0625 12.6875 14.0625 14 17 C13.34 17 12.68 17 12 17 C11.67 16.34 11.34 15.68 11 15 C10.01 15.495 10.01 15.495 9 16 C7.70376621 14.42040347 6.41318673 12.83616587 5.125 11.25 C4.40570312 10.36828125 3.68640625 9.4865625 2.9453125 8.578125 C1.3053593 6.40469304 -0.03912604 4.54024149 -1 2 C-0.67 1.34 -0.34 0.68 0 0 Z " fill="#4C7F4C" transform="translate(559,348)"/>
<path d="M0 0 C4.76123279 0.42010878 7.86513755 2.52064717 11 6 C14.40989574 11.05009876 15.79104201 15.94021833 16 22 C15.34 22.66 14.68 23.32 14 24 C13.9175 22.845 13.835 21.69 13.75 20.5 C13.25744729 16.36843848 11.85855478 13.27044306 9.83984375 9.6640625 C9 8 9 8 9 6 C8.01 5.67 7.02 5.34 6 5 C6 4.34 6 3.68 6 3 C4.02 2.34 2.04 1.68 0 1 C0 0.67 0 0.34 0 0 Z " fill="#85AE59" transform="translate(751,367)"/>
<path d="M0 0 C0.66 0.33 1.32 0.66 2 1 C-2.72744409 6.18493868 -8.31268119 11.46366272 -15.4375 12.5 C-18 12 -18 12 -20 10 C-19.09121094 9.92265625 -19.09121094 9.92265625 -18.1640625 9.84375 C-10.32811505 8.78288327 -5.749752 5.26041141 0 0 Z " fill="#95C052" transform="translate(787,308)"/>
<path d="M0 0 C0.55300781 0.26167969 1.10601563 0.52335937 1.67578125 0.79296875 C-0.25942936 2.58716401 -2.19725415 4.37838204 -4.13671875 6.16796875 C-4.9575293 6.92980469 -4.9575293 6.92980469 -5.79492188 7.70703125 C-8.2244389 9.94513178 -10.56990543 11.95675987 -13.32421875 13.79296875 C-12.81831855 9.55729451 -10.43068595 7.4336259 -7.51171875 4.48046875 C-6.63902344 3.57683594 -5.76632812 2.67320312 -4.8671875 1.7421875 C-2.32421875 -0.20703125 -2.32421875 -0.20703125 0 0 Z " fill="#539C52" transform="translate(686.32421875,470.20703125)"/>
<path d="M0 0 C1.06541016 0.433125 1.06541016 0.433125 2.15234375 0.875 C5.86307395 2.34096749 9.61940238 3.66514148 13.37890625 5 C15.67749198 5.8769567 17.8258507 6.85409543 20 8 C7.27476471 7.96172862 7.27476471 7.96172862 2.6875 4 C0 1.29297821 0 1.29297821 0 0 Z " fill="#4B7544" transform="translate(598,354)"/>
<path d="M0 0 C2.31 0 4.62 0 7 0 C4.06279492 1.52299523 1.0831351 2.80100302 -2 4 C-1.67 4.598125 -1.34 5.19625 -1 5.8125 C0 8 0 8 0 11 C-4.6875 7.484375 -4.6875 7.484375 -6 6 C-6 4.68 -6 3.36 -6 2 C-4.02 2 -2.04 2 0 2 C0 1.34 0 0.68 0 0 Z " fill="#4C7543" transform="translate(589,337)"/>
<path d="M0 0 C0.33 0 0.66 0 1 0 C1 2.64 1 5.28 1 8 C-4.28 7.67 -9.56 7.34 -15 7 C-11.57905758 4.71937172 -10.31812778 4.78074993 -6.3125 4.875 C-4.82169922 4.90207031 -4.82169922 4.90207031 -3.30078125 4.9296875 C-2.54152344 4.95289063 -1.78226563 4.97609375 -1 5 C-0.67 3.35 -0.34 1.7 0 0 Z " fill="#79A84D" transform="translate(764,383)"/>
<path d="M0 0 C-0.99 0 -1.98 0 -3 0 C-3 0.66 -3 1.32 -3 2 C-6.18824568 3.59412284 -9.62896662 3.10174735 -13.125 3.0625 C-13.87910156 3.05798828 -14.63320313 3.05347656 -15.41015625 3.04882812 C-17.27347127 3.03703499 -19.13674555 3.01909942 -21 3 C-21 2.67 -21 2.34 -21 2 C-19.53626953 1.80083984 -19.53626953 1.80083984 -18.04296875 1.59765625 C-16.13451172 1.33275391 -16.13451172 1.33275391 -14.1875 1.0625 C-12.29064453 0.80146484 -12.29064453 0.80146484 -10.35546875 0.53515625 C-2.37619617 -0.73744019 -2.37619617 -0.73744019 0 0 Z " fill="#6C9957" transform="translate(763,454)"/>
<path d="M0 0 C-1.19625 0.433125 -2.3925 0.86625 -3.625 1.3125 C-6.29474643 2.30129497 -8.65704117 3.34784533 -11.1875 4.6875 C-14.08959812 6.04181246 -15.84592956 6.27830033 -19 6 C-15.84690341 3.35595756 -12.83152644 2.0431835 -8.9375 0.75 C-7.89464844 0.39421875 -6.85179687 0.0384375 -5.77734375 -0.328125 C-3 -1 -3 -1 0 0 Z " fill="#63885B" transform="translate(586,313)"/>
<path d="M0 0 C6.20648988 -0.33249053 10.31325646 0.45077014 16 3 C16.66 3.66 17.32 4.32 18 5 C13.80716882 4.35155914 9.73500079 3.48783354 5.625 2.4375 C4.56539062 2.16808594 3.50578125 1.89867187 2.4140625 1.62109375 C1.21910156 1.31365234 1.21910156 1.31365234 0 1 C0 0.67 0 0.34 0 0 Z " fill="#70A754" transform="translate(622,334)"/>
<path d="M0 0 C0.721875 0.45375 1.44375 0.9075 2.1875 1.375 C4.74894081 2.85494358 7.23277989 3.97217539 10 5 C10 5.99 10 6.98 10 8 C11.32 8.33 12.64 8.66 14 9 C8.27719624 8.76641617 5.53617333 7.27521439 1.28515625 3.47265625 C0 2 0 2 0 0 Z " fill="#59794D" transform="translate(644,343)"/>
<path d="M0 0 C3.81936528 1.55603771 6.26044438 3.95604931 9 7 C9 7.66 9 8.32 9 9 C5.55862568 7.4705003 2.7777867 5.54630448 0 3 C0 2.01 0 1.02 0 0 Z " fill="#90B858" transform="translate(826,386)"/>
<path d="M0 0 C4.38889325 0.66498383 7.9811485 2.18757677 12 4 C12 4.33 12 4.66 12 5 C7.12335991 5.34833144 4.22949995 4.41685712 0 2 C0 1.34 0 0.68 0 0 Z " fill="#6A9351" transform="translate(641,313)"/>
<path d="M0 0 C0.66 0.33 1.32 0.66 2 1 C2 1.66 2 2.32 2 3 C0.67732273 4.01405257 -0.65724831 5.01268258 -2 6 C-2.66 6.99 -3.32 7.98 -4 9 C-4.33 7.02 -4.66 5.04 -5 3 C-2.625 1.4375 -2.625 1.4375 0 0 Z " fill="#53894D" transform="translate(553,324)"/>
<path d="M0 0 C0.90105469 0.00902344 1.80210937 0.01804687 2.73046875 0.02734375 C3.41753906 0.03894531 4.10460937 0.05054688 4.8125 0.0625 C4.8125 0.3925 4.8125 0.7225 4.8125 1.0625 C-0.64211169 2.44779821 -5.55468401 3.3021943 -11.1875 3.0625 C-7.23784431 0.4293962 -4.63874115 -0.06024339 0 0 Z " fill="#65A054" transform="translate(600.1875,333.9375)"/>
<path d="M0 0 C1 3 1 3 -0.3125 6.625 C-2 10 -2 10 -4 11 C-3.39301257 6.87248551 -1.96189209 3.6678852 0 0 Z " fill="#88B952" transform="translate(864,455)"/>
<path d="M0 0 C6.875 3.75 6.875 3.75 8 6 C4.62537285 5.45276317 2.91765 4.9451 0 3 C0 2.01 0 1.02 0 0 Z " fill="#568450" transform="translate(590,348)"/>
<path d="M0 0 C2.9375 0.8125 2.9375 0.8125 6 2 C6.33 2.99 6.66 3.98 7 5 C7.99 5.33 8.98 5.66 10 6 C9.01 6.33 8.02 6.66 7 7 C5.17578125 5.8203125 5.17578125 5.8203125 3.3125 4.125 C2.68988281 3.57070313 2.06726563 3.01640625 1.42578125 2.4453125 C0 1 0 1 0 0 Z " fill="#6FA555" transform="translate(643,341)"/>
<path d="M0 0 C3.3 0.33 6.6 0.66 10 1 C10 1.66 10 2.32 10 3 C10.66 3.33 11.32 3.66 12 4 C10 5 10 5 7.6171875 4.22265625 C6.71226562 3.83980469 5.80734375 3.45695312 4.875 3.0625 C3.50988281 2.49208984 3.50988281 2.49208984 2.1171875 1.91015625 C1.41851563 1.60980469 0.71984375 1.30945313 0 1 C0 0.67 0 0.34 0 0 Z " fill="#87B751" transform="translate(703,304)"/>
<path d="M0 0 C2.97 0.495 2.97 0.495 6 1 C6.33 2.32 6.66 3.64 7 5 C3.34683329 3.75023244 2.21934164 3.32901247 0 0 Z " fill="#4D7E4A" transform="translate(581,374)"/>
<path d="M0 0 C4.29 0.33 8.58 0.66 13 1 C13 1.33 13 1.66 13 2 C11.58696762 2.2506019 10.16920526 2.47461921 8.75 2.6875 C7.96109375 2.81511719 7.1721875 2.94273437 6.359375 3.07421875 C4 3 4 3 0 0 Z " fill="#75A34F" transform="translate(810,463)"/>
<path d="M0 0 C1.8871875 0.0309375 1.8871875 0.0309375 3.8125 0.0625 C3.8125 0.3925 3.8125 0.7225 3.8125 1.0625 C-0.06434087 2.25537411 -3.10371923 3.0625 -7.1875 3.0625 C-7.1875 2.4025 -7.1875 1.7425 -7.1875 1.0625 C-4.43671116 0.14557039 -2.82801087 -0.04636083 0 0 Z " fill="#73B250" transform="translate(767.1875,452.9375)"/>
<path d="M0 0 C-3.20336822 2.83374881 -5.78087253 3.5205537 -10 4 C-6.87839899 0.56623888 -4.64008112 -1.54669371 0 0 Z " fill="#72A853" transform="translate(670,344)"/>
<path d="M0 0 C4.7517398 0.43197635 6.92000054 1.32769295 10 5 C2.42857143 3.14285714 2.42857143 3.14285714 0 0 Z " fill="#76AB56" transform="translate(785,476)"/>
<path d="M0 0 C0.99 0 1.98 0 3 0 C3.99 1.98 4.98 3.96 6 6 C5.34 6 4.68 6 4 6 C3.67 5.34 3.34 4.68 3 4 C2.01 4.495 2.01 4.495 1 5 C0.67 3.35 0.34 1.7 0 0 Z " fill="#538E4F" transform="translate(567,359)"/>
<path d="M0 0 C0.66 0.33 1.32 0.66 2 1 C2 1.66 2 2.32 2 3 C2.66 3.33 3.32 3.66 4 4 C3 5 3 5 -0.0625 5.0625 C-1.5165625 5.0315625 -1.5165625 5.0315625 -3 5 C-2.67 4.34 -2.34 3.68 -2 3 C-1.34 3 -0.68 3 0 3 C0 2.01 0 1.02 0 0 Z " fill="#6E9E4E" transform="translate(673,337)"/>
</svg>
